<?xml version="1.0" standalone="no"?>
<!DOCTYPE svg PUBLIC "-//W3C//DTD SVG 20010904//EN"
 "http://www.w3.org/TR/2001/REC-SVG-20010904/DTD/svg10.dtd">
<svg version="1.0" xmlns="http://www.w3.org/2000/svg"
 width="768.000000pt" height="591.000000pt" viewBox="0 0 768.000000 591.000000"
 preserveAspectRatio="xMidYMid meet">
<metadata>
Created by potrace 1.16, written by Peter Selinger 2001-2019
</metadata>
<g transform="translate(0.000000,591.000000) scale(0.100000,-0.100000)"
fill="#000000" stroke="none">
<path d="M3017 4350 c-16 -10 -55 -23 -86 -29 -113 -22 -202 -108 -217 -209
-8 -54 5 -68 71 -78 97 -14 193 42 232 135 19 45 44 184 35 192 -4 4 -20 -1
-35 -11z"/>
<path d="M2350 4081 c-170 -55 -251 -199 -251 -441 0 -265 117 -513 267 -570
71 -26 167 -26 262 0 58 16 81 18 115 10 121 -28 200 2 302 113 73 78 135 194
154 285 47 227 -42 453 -195 498 -49 14 -61 14 -136 -1 -45 -10 -100 -15 -122
-12 -22 3 -91 31 -153 62 -117 58 -187 74 -243 56z"/>
<path d="M1699 3267 c-39 -30 -44 -38 -43 -71 2 -58 -256 -779 -292 -817 -15
-16 -33 -29 -40 -29 -14 0 -24 -23 -24 -56 l0 -24 125 0 125 0 0 28 c0 33 -8
45 -37 61 -29 15 -29 39 0 127 l24 69 167 3 166 2 11 -27 c54 -146 143 -234
269 -266 l55 -14 3 -71 c3 -70 2 -71 -28 -87 -21 -11 -30 -23 -30 -40 l0 -25
130 0 130 0 0 25 c0 19 -8 28 -35 39 l-35 15 0 316 0 316 43 19 c55 25 83 25
137 -2 64 -33 84 -79 88 -198 3 -88 1 -99 -25 -149 -37 -73 -77 -94 -155 -86
l-58 6 0 -30 c0 -26 5 -31 38 -40 133 -37 268 24 325 147 18 38 22 66 22 147
0 92 -2 104 -30 154 -36 65 -83 106 -149 127 -62 21 -152 14 -202 -15 -43 -25
-46 -26 -42 -3 3 15 -6 17 -87 14 -49 -2 -91 -5 -93 -7 -11 -11 11 -53 33 -63
l25 -12 0 -190 c0 -206 0 -206 -54 -171 -66 44 -90 95 -259 566 -85 237 -127
341 -138 343 -9 2 -36 -12 -60 -31z m74 -428 c32 -91 57 -171 57 -177 0 -9
-35 -12 -123 -12 -68 0 -126 2 -129 5 -3 3 17 67 44 143 76 215 80 224 88 215
4 -4 32 -83 63 -174z"/>
<path d="M3453 3093 l-83 -4 0 -30 c0 -23 6 -32 27 -40 15 -6 31 -16 35 -22 4
-7 8 -157 8 -333 0 -338 0 -337 -45 -346 -14 -2 -21 -12 -23 -36 l-3 -32 136
0 136 0 -3 32 c-2 24 -9 34 -23 36 -44 8 -45 17 -45 409 0 349 -1 373 -17 371
-10 -1 -55 -4 -100 -5z"/>
<path d="M4122 3063 c2 -19 12 -32 31 -41 l27 -13 0 -380 0 -379 22 0 c12 0
34 12 49 26 l28 26 46 -22 c63 -30 158 -37 221 -16 111 37 175 129 182 262 5
103 -14 174 -64 232 -69 81 -176 110 -286 78 -31 -9 -59 -16 -62 -16 -3 0 -6
61 -6 135 l0 135 -96 0 -95 0 3 -27z m390 -315 c46 -32 71 -98 71 -187 0 -127
-31 -199 -99 -227 -45 -19 -81 -17 -131 6 l-43 19 0 191 0 191 43 20 c51 24
115 19 159 -13z"/>
<path d="M3040 2844 c-8 -3 -32 -15 -52 -25 -38 -18 -38 -18 -38 1 0 23 -16
24 -119 14 -56 -6 -61 -9 -61 -31 0 -15 9 -27 25 -35 l25 -11 0 -326 0 -327
-30 -11 c-23 -9 -30 -18 -30 -37 l0 -26 130 0 130 0 0 26 c0 20 -7 29 -30 37
-17 7 -33 21 -36 32 -2 11 -3 152 -2 314 l3 294 28 20 c19 15 43 21 81 21 66
1 99 -20 136 -85 21 -38 25 -57 25 -134 0 -76 -4 -98 -25 -139 -36 -72 -67
-91 -148 -91 -65 0 -67 -1 -70 -27 -3 -24 1 -28 40 -39 58 -15 154 -6 204 19
109 55 169 195 144 334 -19 102 -65 169 -145 210 -40 21 -154 34 -185 22z"/>
<path d="M3822 2821 c-185 -64 -255 -338 -124 -483 60 -66 102 -83 212 -83 83
0 103 4 153 27 54 25 57 29 47 49 -10 17 -18 20 -43 15 -92 -19 -143 -18 -183
2 -45 23 -75 53 -98 99 -30 59 -24 66 72 92 93 26 250 85 264 99 18 18 -13 96
-56 138 -64 65 -144 79 -244 45z m130 -68 c26 -23 60 -95 49 -106 -4 -4 -59
-21 -122 -36 l-114 -29 -3 30 c-5 44 24 113 61 144 25 21 38 25 70 21 21 -3
48 -14 59 -24z"/>
<path d="M4979 2825 c-63 -20 -132 -84 -165 -152 -24 -49 -28 -69 -28 -142 1
-124 37 -193 131 -248 85 -50 257 -41 333 17 24 18 24 20 8 37 -16 15 -23 16
-63 5 -117 -31 -212 7 -256 103 -28 60 -25 72 19 80 52 10 239 73 285 97 36
18 39 22 33 51 -11 55 -54 116 -98 138 -53 27 -139 33 -199 14z m123 -72 c26
-23 60 -95 49 -106 -4 -4 -59 -21 -122 -36 l-114 -29 -3 23 c-6 43 19 108 54
143 31 31 39 34 75 29 22 -3 50 -14 61 -24z"/>
<path d="M5509 2825 c-64 -20 -141 -92 -168 -155 -66 -153 -17 -324 113 -393
34 -18 57 -22 136 -22 82 0 103 4 153 27 60 28 67 37 41 59 -12 10 -24 10 -60
1 -114 -31 -206 5 -255 100 -33 65 -29 71 69 96 126 33 266 93 270 115 2 10
-8 43 -23 73 -20 40 -38 61 -71 80 -55 32 -139 40 -205 19z m123 -72 c26 -23
60 -95 49 -106 -4 -4 -59 -21 -122 -36 l-114 -29 -3 23 c-6 43 19 108 54 143
31 31 39 34 75 29 22 -3 50 -14 61 -24z"/>
<path d="M6038 2830 c-93 -28 -151 -92 -151 -165 0 -82 48 -124 197 -176 80
-28 126 -65 126 -104 0 -61 -47 -95 -133 -95 -61 0 -77 11 -77 55 0 41 -27 65
-72 65 -42 0 -68 -25 -68 -67 0 -63 87 -106 220 -107 72 0 93 3 134 25 97 49
139 143 101 223 -23 47 -68 77 -170 112 -44 15 -95 38 -112 51 -63 46 -34 123
52 139 46 8 75 -10 75 -46 0 -19 8 -34 22 -44 49 -35 118 -8 118 45 0 37 -38
75 -89 89 -42 12 -134 12 -173 0z"/>
<path d="M3546 1820 c-58 -18 -96 -73 -96 -140 0 -113 91 -175 195 -135 l45
17 0 69 0 69 -55 0 c-52 0 -55 -1 -55 -25 0 -18 5 -25 20 -25 14 0 20 -7 20
-24 0 -29 -21 -39 -55 -26 -46 17 -59 90 -24 134 22 28 66 35 88 14 10 -11 16
-8 31 12 25 32 25 34 -2 48 -35 17 -80 21 -112 12z"/>
<path d="M4800 1818 c-32 -17 -47 -59 -34 -95 7 -22 5 -31 -13 -50 -27 -26
-30 -78 -8 -110 21 -30 73 -38 118 -19 33 13 37 13 46 -1 8 -15 11 -14 34 4
24 18 24 21 10 36 -14 13 -14 20 -3 47 11 27 11 33 -1 41 -21 13 -36 11 -43
-8 -6 -15 -8 -15 -22 -1 -14 14 -13 18 10 41 14 14 26 37 26 50 0 55 -68 91
-120 65z"/>
<path d="M3750 1680 l0 -140 34 0 c34 0 35 1 38 43 4 54 22 54 51 2 20 -36 27
-40 65 -43 l42 -3 -29 49 -28 48 23 23 c24 23 32 78 18 116 -12 29 -60 45
-139 45 l-75 0 0 -140z"/>
<path d="M4030 1680 l0 -140 40 0 40 0 0 140 0 140 -40 0 -40 0 0 -140z"/>
<path d="M4180 1680 l0 -140 90 0 90 0 0 30 c0 30 -1 30 -55 30 l-55 0 0 110
0 110 -35 0 -35 0 0 -140z"/>
<path d="M4420 1680 l0 -140 90 0 90 0 0 30 c0 30 -1 30 -55 30 l-55 0 0 110
0 110 -35 0 -35 0 0 -140z"/>
<path d="M5120 1681 l0 -141 84 0 c69 0 88 4 110 21 32 25 35 73 6 104 -18 20
-19 23 -5 35 19 16 20 70 1 96 -12 16 -29 20 -105 22 l-91 4 0 -141z"/>
<path d="M5475 1808 c-2 -7 -24 -70 -49 -140 l-44 -128 38 0 c32 0 39 4 44 25
6 22 12 25 51 25 39 0 47 -3 55 -25 8 -20 16 -25 46 -25 25 0 35 4 32 13 -3 6
-24 69 -49 140 l-44 127 -38 0 c-21 0 -40 -5 -42 -12z"/>
<path d="M5698 1681 l-3 -141 38 0 37 0 0 46 c0 56 15 55 48 -4 21 -38 27 -42
63 -42 l40 0 -28 52 c-20 37 -24 53 -15 56 23 7 44 62 38 97 -11 55 -37 70
-132 74 l-83 3 -3 -141z"/>
</g>
</svg>
